<svg xmlns="http://www.w3.org/2000/svg" xmlns:xlink="http://www.w3.org/1999/xlink" width="500" zoomAndPan="magnify" viewBox="0 0 375 374.999991" height="500" preserveAspectRatio="xMidYMid meet" version="1.0"><defs><g/><clipPath id="64c77b7b3e"><path d="M 61 154.472656 L 92.976562 154.472656 L 92.976562 186 L 61 186 Z M 61 154.472656 " clip-rule="nonzero"/></clipPath><clipPath id="df5305a302"><path d="M 61 185 L 92.976562 185 L 92.976562 216.722656 L 61 216.722656 Z M 61 185 " clip-rule="nonzero"/></clipPath><clipPath id="a59c32a957"><path d="M 30.726562 185 L 62 185 L 62 216.722656 L 30.726562 216.722656 Z M 30.726562 185 " clip-rule="nonzero"/></clipPath><clipPath id="437dac2c6a"><path d="M 30.726562 154.472656 L 62 154.472656 L 62 186 L 30.726562 186 Z M 30.726562 154.472656 " clip-rule="nonzero"/></clipPath></defs><g clip-path="url(#64c77b7b3e)"><path fill="#ffffff" d="M 92.847656 154.722656 L 92.847656 182.96875 C 89.179688 182.160156 85.382812 181.734375 81.476562 181.734375 C 74.511719 181.734375 67.867188 183.082031 61.785156 185.53125 C 64.238281 179.449219 65.582031 172.804688 65.582031 165.84375 C 65.582031 162.03125 65.175781 158.300781 64.398438 154.722656 Z M 92.847656 154.722656 " fill-opacity="1" fill-rule="evenodd"/></g><g clip-path="url(#df5305a302)"><path fill="#c9a84c" d="M 92.597656 216.59375 L 64.347656 216.59375 C 65.160156 212.925781 65.582031 209.128906 65.582031 205.222656 C 65.582031 198.257812 64.238281 191.613281 61.785156 185.53125 C 67.867188 187.980469 74.511719 189.328125 81.476562 189.328125 C 85.289062 189.328125 89.015625 188.921875 92.597656 188.144531 Z M 92.597656 216.59375 " fill-opacity="1" fill-rule="evenodd"/></g><g clip-path="url(#a59c32a957)"><path fill="#ffffff" d="M 30.726562 216.34375 L 30.726562 188.09375 C 34.390625 188.898438 38.1875 189.328125 42.097656 189.328125 C 49.058594 189.328125 55.703125 187.980469 61.785156 185.53125 C 59.335938 191.613281 57.988281 198.257812 57.988281 205.222656 C 57.988281 209.042969 58.386719 212.761719 59.171875 216.34375 Z M 30.726562 216.34375 " fill-opacity="1" fill-rule="evenodd"/></g><g clip-path="url(#437dac2c6a)"><path fill="#c9a84c" d="M 30.976562 154.472656 L 59.222656 154.472656 C 58.414062 158.136719 57.988281 161.933594 57.988281 165.84375 C 57.988281 172.804688 59.335938 179.449219 61.785156 185.53125 C 55.703125 183.082031 49.058594 181.734375 42.097656 181.734375 C 38.273438 181.734375 34.554688 182.140625 30.976562 182.917969 Z M 30.976562 154.472656 " fill-opacity="1" fill-rule="evenodd"/></g><g fill="#ffffff" fill-opacity="1"><g transform="translate(107.513654, 191.208575)"><g><path d="M 2.125 -10.0625 L 3.671875 -10.0625 C 4.035156 -7.5625 5.035156 -5.59375 6.671875 -4.15625 C 8.304688 -2.726562 10.316406 -2.015625 12.703125 -2.015625 C 13.679688 -2.015625 14.578125 -2.128906 15.390625 -2.359375 C 16.203125 -2.597656 16.898438 -2.9375 17.484375 -3.375 C 18.066406 -3.8125 18.515625 -4.320312 18.828125 -4.90625 C 19.140625 -5.5 19.296875 -6.164062 19.296875 -6.90625 C 19.296875 -7.539062 19.195312 -8.085938 19 -8.546875 C 18.800781 -9.003906 18.425781 -9.445312 17.875 -9.875 C 17.320312 -10.3125 16.566406 -10.753906 15.609375 -11.203125 C 14.648438 -11.648438 13.40625 -12.164062 11.875 -12.75 C 8.800781 -13.9375 6.523438 -15.3125 5.046875 -16.875 C 3.578125 -18.4375 2.84375 -20.285156 2.84375 -22.421875 C 2.84375 -23.648438 3.078125 -24.78125 3.546875 -25.8125 C 4.023438 -26.84375 4.691406 -27.722656 5.546875 -28.453125 C 6.398438 -29.191406 7.425781 -29.765625 8.625 -30.171875 C 9.820312 -30.578125 11.144531 -30.78125 12.59375 -30.78125 C 13.9375 -30.78125 15.195312 -30.566406 16.375 -30.140625 C 17.5625 -29.722656 18.734375 -29.097656 19.890625 -28.265625 L 20.609375 -30.234375 L 21.546875 -30.234375 L 21.984375 -21.703125 L 20.4375 -21.703125 C 19.8125 -23.859375 18.828125 -25.507812 17.484375 -26.65625 C 16.140625 -27.800781 14.585938 -28.375 12.828125 -28.375 C 11.191406 -28.375 9.867188 -27.972656 8.859375 -27.171875 C 7.847656 -26.367188 7.34375 -25.335938 7.34375 -24.078125 C 7.34375 -23.523438 7.429688 -23.03125 7.609375 -22.59375 C 7.796875 -22.15625 8.140625 -21.738281 8.640625 -21.34375 C 9.140625 -20.957031 9.820312 -20.554688 10.6875 -20.140625 C 11.5625 -19.734375 12.679688 -19.28125 14.046875 -18.78125 C 15.890625 -18.070312 17.460938 -17.351562 18.765625 -16.625 C 20.066406 -15.90625 21.128906 -15.128906 21.953125 -14.296875 C 22.785156 -13.472656 23.398438 -12.597656 23.796875 -11.671875 C 24.191406 -10.753906 24.390625 -9.742188 24.390625 -8.640625 C 24.390625 -7.296875 24.097656 -6.070312 23.515625 -4.96875 C 22.941406 -3.863281 22.132812 -2.914062 21.09375 -2.125 C 20.050781 -1.34375 18.8125 -0.726562 17.375 -0.28125 C 15.945312 0.164062 14.363281 0.390625 12.625 0.390625 C 11.050781 0.390625 9.628906 0.175781 8.359375 -0.25 C 7.097656 -0.6875 5.796875 -1.394531 4.453125 -2.375 L 3.671875 0 L 2.71875 0 Z M 2.125 -10.0625 "/></g></g></g><g fill="#ffffff" fill-opacity="1"><g transform="translate(132.457698, 191.208575)"><g><path d="M 0.984375 -18.75 L 0.984375 -20.53125 C 2.566406 -20.96875 3.890625 -21.640625 4.953125 -22.546875 C 6.015625 -23.460938 6.8125 -24.507812 7.34375 -25.6875 L 9.359375 -25.6875 L 9.359375 -20.921875 L 13.890625 -20.921875 L 13.890625 -18.75 L 9.359375 -18.75 L 9.359375 -6.625 C 9.359375 -5 9.535156 -3.84375 9.890625 -3.15625 C 10.242188 -2.46875 10.84375 -2.125 11.6875 -2.125 C 12.707031 -2.125 13.484375 -2.597656 14.015625 -3.546875 L 14.84375 -2.40625 C 14.101562 -0.539062 12.363281 0.390625 9.625 0.390625 C 7.8125 0.390625 6.398438 -0.0234375 5.390625 -0.859375 C 4.378906 -1.703125 3.875 -2.890625 3.875 -4.421875 L 3.875 -18.75 Z M 0.984375 -18.75 "/></g></g></g><g fill="#ffffff" fill-opacity="1"><g transform="translate(146.547869, 191.208575)"><g><path d="M 21.3125 -3.671875 C 18.914062 -0.960938 15.929688 0.390625 12.359375 0.390625 C 10.722656 0.390625 9.238281 0.132812 7.90625 -0.375 C 6.582031 -0.882812 5.445312 -1.609375 4.5 -2.546875 C 3.550781 -3.484375 2.8125 -4.59375 2.28125 -5.875 C 1.757812 -7.164062 1.5 -8.601562 1.5 -10.1875 C 1.5 -11.8125 1.773438 -13.300781 2.328125 -14.65625 C 2.878906 -16.007812 3.660156 -17.179688 4.671875 -18.171875 C 5.691406 -19.160156 6.890625 -19.929688 8.265625 -20.484375 C 9.648438 -21.035156 11.171875 -21.3125 12.828125 -21.3125 C 15.617188 -21.3125 17.789062 -20.5625 19.34375 -19.0625 C 20.894531 -17.5625 21.671875 -15.457031 21.671875 -12.75 C 21.671875 -12.320312 21.601562 -12.0625 21.46875 -11.96875 C 21.34375 -11.882812 20.972656 -11.84375 20.359375 -11.84375 L 7.65625 -11.84375 C 7.550781 -11.601562 7.5 -11.164062 7.5 -10.53125 C 7.5 -7.957031 8.054688 -5.921875 9.171875 -4.421875 C 10.296875 -2.921875 11.816406 -2.171875 13.734375 -2.171875 C 14.835938 -2.171875 15.9375 -2.421875 17.03125 -2.921875 C 18.125 -3.421875 19.179688 -4.128906 20.203125 -5.046875 Z M 13.65625 -14.046875 C 14.707031 -14.046875 15.382812 -14.101562 15.6875 -14.21875 C 15.988281 -14.34375 16.140625 -14.628906 16.140625 -15.078125 C 16.140625 -16.234375 15.8125 -17.179688 15.15625 -17.921875 C 14.5 -18.660156 13.671875 -19.03125 12.671875 -19.03125 C 11.535156 -19.03125 10.523438 -18.5625 9.640625 -17.625 C 8.765625 -16.6875 8.195312 -15.492188 7.9375 -14.046875 Z M 13.65625 -14.046875 "/></g></g></g><g fill="#ffffff" fill-opacity="1"><g transform="translate(168.650186, 191.208575)"><g><path d="M 13.578125 -11.25 C 11.367188 -10.25 9.703125 -9.320312 8.578125 -8.46875 C 7.460938 -7.613281 6.90625 -6.722656 6.90625 -5.796875 C 6.90625 -5.035156 7.113281 -4.429688 7.53125 -3.984375 C 7.957031 -3.535156 8.488281 -3.3125 9.125 -3.3125 C 9.75 -3.3125 10.335938 -3.421875 10.890625 -3.640625 C 11.441406 -3.867188 11.914062 -4.164062 12.3125 -4.53125 C 12.707031 -4.90625 13.015625 -5.347656 13.234375 -5.859375 C 13.460938 -6.367188 13.578125 -6.914062 13.578125 -7.5 Z M 13.578125 -13.34375 L 13.578125 -15 C 13.578125 -16.519531 13.304688 -17.628906 12.765625 -18.328125 C 12.222656 -19.023438 11.390625 -19.375 10.265625 -19.375 C 9.503906 -19.375 8.925781 -19.171875 8.53125 -18.765625 C 8.132812 -18.359375 7.765625 -17.679688 7.421875 -16.734375 C 7.179688 -16.078125 6.84375 -15.5625 6.40625 -15.1875 C 5.976562 -14.820312 5.382812 -14.640625 4.625 -14.640625 C 3.882812 -14.640625 3.316406 -14.863281 2.921875 -15.3125 C 2.523438 -15.757812 2.328125 -16.390625 2.328125 -17.203125 C 2.328125 -18.472656 3.015625 -19.472656 4.390625 -20.203125 C 5.773438 -20.941406 7.863281 -21.3125 10.65625 -21.3125 C 13.601562 -21.3125 15.707031 -20.773438 16.96875 -19.703125 C 18.226562 -18.640625 18.859375 -16.859375 18.859375 -14.359375 L 18.859375 -5.71875 C 18.859375 -3.488281 19.304688 -2.375 20.203125 -2.375 C 20.703125 -2.375 21.164062 -2.539062 21.59375 -2.875 L 22.1875 -1.734375 C 21.8125 -1.078125 21.234375 -0.554688 20.453125 -0.171875 C 19.679688 0.203125 18.8125 0.390625 17.84375 0.390625 C 16.632812 0.390625 15.710938 0.0234375 15.078125 -0.703125 C 14.441406 -1.441406 14.125 -2.484375 14.125 -3.828125 L 13.9375 -3.828125 C 13.164062 -2.460938 12.175781 -1.421875 10.96875 -0.703125 C 9.757812 0.00390625 8.378906 0.359375 6.828125 0.359375 C 5.171875 0.359375 3.84375 -0.109375 2.84375 -1.046875 C 1.84375 -1.984375 1.34375 -3.203125 1.34375 -4.703125 C 1.34375 -5.859375 1.851562 -6.941406 2.875 -7.953125 C 3.90625 -8.960938 5.617188 -9.957031 8.015625 -10.9375 Z M 13.578125 -13.34375 "/></g></g></g><g fill="#ffffff" fill-opacity="1"><g transform="translate(190.318347, 191.208575)"><g><path d="M 18.984375 -2.53125 L 18.828125 -2.53125 C 17.015625 -0.582031 14.660156 0.390625 11.765625 0.390625 C 10.265625 0.390625 8.890625 0.128906 7.640625 -0.390625 C 6.390625 -0.921875 5.3125 -1.660156 4.40625 -2.609375 C 3.5 -3.554688 2.796875 -4.679688 2.296875 -5.984375 C 1.796875 -7.285156 1.546875 -8.722656 1.546875 -10.296875 C 1.546875 -11.878906 1.800781 -13.335938 2.3125 -14.671875 C 2.820312 -16.015625 3.515625 -17.179688 4.390625 -18.171875 C 5.273438 -19.160156 6.328125 -19.929688 7.546875 -20.484375 C 8.773438 -21.035156 10.101562 -21.3125 11.53125 -21.3125 C 12.84375 -21.3125 14.003906 -21.113281 15.015625 -20.71875 C 16.023438 -20.320312 16.914062 -19.648438 17.6875 -18.703125 L 17.84375 -18.703125 L 17.84375 -22.0625 C 17.84375 -23.613281 17.820312 -24.945312 17.78125 -26.0625 C 17.738281 -27.1875 17.679688 -27.921875 17.609375 -28.265625 C 17.472656 -28.816406 17.066406 -29.21875 16.390625 -29.46875 C 15.722656 -29.71875 14.691406 -29.84375 13.296875 -29.84375 L 13.296875 -31.1875 L 23.28125 -32.765625 L 23.28125 -10.1875 C 23.28125 -8.207031 23.300781 -6.6875 23.34375 -5.625 C 23.382812 -4.5625 23.457031 -3.753906 23.5625 -3.203125 C 23.613281 -2.859375 23.691406 -2.578125 23.796875 -2.359375 C 23.898438 -2.148438 24.054688 -1.988281 24.265625 -1.875 C 24.484375 -1.757812 24.769531 -1.679688 25.125 -1.640625 C 25.476562 -1.597656 25.929688 -1.578125 26.484375 -1.578125 L 26.484375 -0.046875 L 18.984375 0.390625 Z M 17.765625 -11.328125 C 17.765625 -12.328125 17.65625 -13.253906 17.4375 -14.109375 C 17.226562 -14.960938 16.914062 -15.71875 16.5 -16.375 C 16.019531 -17.144531 15.410156 -17.722656 14.671875 -18.109375 C 13.941406 -18.503906 13.15625 -18.703125 12.3125 -18.703125 C 10.757812 -18.703125 9.570312 -17.992188 8.75 -16.578125 C 7.9375 -15.160156 7.53125 -13.09375 7.53125 -10.375 C 7.53125 -7.644531 7.9375 -5.539062 8.75 -4.0625 C 9.570312 -2.59375 10.75 -1.859375 12.28125 -1.859375 C 13.144531 -1.859375 13.972656 -2.082031 14.765625 -2.53125 C 15.554688 -2.976562 16.195312 -3.582031 16.6875 -4.34375 C 17.0625 -4.914062 17.332031 -5.628906 17.5 -6.484375 C 17.675781 -7.347656 17.765625 -8.445312 17.765625 -9.78125 Z M 17.765625 -11.328125 "/></g></g></g><g fill="#ffffff" fill-opacity="1"><g transform="translate(216.24909, 191.208575)"><g><path d="M 11.328125 6.203125 C 11.035156 6.773438 10.671875 7.3125 10.234375 7.8125 C 9.804688 8.3125 9.320312 8.738281 8.78125 9.09375 C 8.238281 9.445312 7.675781 9.726562 7.09375 9.9375 C 6.519531 10.15625 5.945312 10.265625 5.375 10.265625 C 4.5 10.265625 3.796875 10.050781 3.265625 9.625 C 2.742188 9.207031 2.484375 8.644531 2.484375 7.9375 C 2.484375 7.28125 2.710938 6.765625 3.171875 6.390625 C 3.640625 6.023438 4.382812 5.800781 5.40625 5.71875 C 7.75 5.539062 9.265625 4.804688 9.953125 3.515625 L 11.015625 1.453125 L 4.03125 -15.828125 C 3.707031 -16.585938 3.429688 -17.191406 3.203125 -17.640625 C 2.984375 -18.085938 2.742188 -18.4375 2.484375 -18.6875 C 2.222656 -18.9375 1.921875 -19.097656 1.578125 -19.171875 C 1.234375 -19.253906 0.8125 -19.3125 0.3125 -19.34375 L 0.3125 -20.921875 L 12.28125 -20.921875 L 12.28125 -19.34375 C 11.25 -19.34375 10.53125 -19.242188 10.125 -19.046875 C 9.71875 -18.847656 9.515625 -18.484375 9.515625 -17.953125 C 9.515625 -17.742188 9.546875 -17.5 9.609375 -17.21875 C 9.671875 -16.945312 9.757812 -16.664062 9.875 -16.375 L 13.890625 -4.859375 L 14.046875 -4.859375 L 17.4375 -12.546875 C 17.78125 -13.367188 18.070312 -14.046875 18.3125 -14.578125 C 18.550781 -15.117188 18.726562 -15.578125 18.84375 -15.953125 C 18.96875 -16.335938 19.054688 -16.648438 19.109375 -16.890625 C 19.160156 -17.128906 19.1875 -17.367188 19.1875 -17.609375 C 19.1875 -18.285156 18.992188 -18.742188 18.609375 -18.984375 C 18.222656 -19.222656 17.453125 -19.34375 16.296875 -19.34375 L 16.296875 -20.921875 L 25.8125 -20.921875 L 25.8125 -19.34375 C 25.28125 -19.34375 24.832031 -19.269531 24.46875 -19.125 C 24.101562 -18.976562 23.726562 -18.679688 23.34375 -18.234375 C 22.96875 -17.785156 22.546875 -17.117188 22.078125 -16.234375 C 21.617188 -15.359375 21.046875 -14.195312 20.359375 -12.75 Z M 11.328125 6.203125 "/></g></g></g><g fill="#ffffff" fill-opacity="1"><g transform="translate(239.574826, 191.208575)"><g/></g></g><g fill="#ffffff" fill-opacity="1"><g transform="translate(247.547203, 191.208575)"><g><path d="M 3.984375 -25.421875 C 3.585938 -26.097656 3.222656 -26.660156 2.890625 -27.109375 C 2.566406 -27.554688 2.234375 -27.90625 1.890625 -28.15625 C 1.546875 -28.40625 1.175781 -28.578125 0.78125 -28.671875 C 0.394531 -28.765625 -0.046875 -28.8125 -0.546875 -28.8125 L -0.546875 -30.390625 L 12.703125 -30.390625 L 12.703125 -28.8125 C 11.597656 -28.8125 10.820312 -28.707031 10.375 -28.5 C 9.925781 -28.289062 9.703125 -27.972656 9.703125 -27.546875 C 9.703125 -27.285156 9.78125 -26.96875 9.9375 -26.59375 C 10.101562 -26.226562 10.359375 -25.734375 10.703125 -25.109375 L 16.34375 -14.328125 L 16.5 -14.328125 L 21.46875 -22.609375 C 22.34375 -24.085938 22.945312 -25.1875 23.28125 -25.90625 C 23.625 -26.632812 23.796875 -27.207031 23.796875 -27.625 C 23.796875 -28.070312 23.59375 -28.378906 23.1875 -28.546875 C 22.78125 -28.722656 22.023438 -28.8125 20.921875 -28.8125 L 20.921875 -30.390625 L 30.828125 -30.390625 L 30.828125 -28.8125 C 30.242188 -28.8125 29.710938 -28.71875 29.234375 -28.53125 C 28.765625 -28.351562 28.273438 -27.992188 27.765625 -27.453125 C 27.253906 -26.910156 26.675781 -26.160156 26.03125 -25.203125 C 25.382812 -24.242188 24.613281 -22.988281 23.71875 -21.4375 L 17.953125 -11.5625 L 17.953125 -7.53125 C 17.953125 -6.21875 18.007812 -5.164062 18.125 -4.375 C 18.25 -3.59375 18.460938 -2.992188 18.765625 -2.578125 C 19.066406 -2.171875 19.476562 -1.898438 20 -1.765625 C 20.53125 -1.640625 21.21875 -1.578125 22.0625 -1.578125 L 22.0625 0 L 8.015625 0 L 8.015625 -1.578125 C 8.828125 -1.578125 9.503906 -1.640625 10.046875 -1.765625 C 10.585938 -1.898438 11.015625 -2.164062 11.328125 -2.5625 C 11.640625 -2.957031 11.851562 -3.53125 11.96875 -4.28125 C 12.09375 -5.03125 12.15625 -6.023438 12.15625 -7.265625 L 12.15625 -10.890625 Z M 3.984375 -25.421875 "/></g></g></g><g fill="#ffffff" fill-opacity="1"><g transform="translate(276.161814, 191.208575)"><g><path d="M 10.140625 -6.46875 C 10.140625 -5.414062 10.175781 -4.570312 10.25 -3.9375 C 10.332031 -3.3125 10.492188 -2.828125 10.734375 -2.484375 C 10.972656 -2.140625 11.316406 -1.910156 11.765625 -1.796875 C 12.210938 -1.679688 12.816406 -1.609375 13.578125 -1.578125 L 13.578125 0 L 1.140625 0 L 1.140625 -1.578125 C 1.878906 -1.609375 2.476562 -1.691406 2.9375 -1.828125 C 3.394531 -1.972656 3.75 -2.210938 4 -2.546875 C 4.25 -2.878906 4.421875 -3.335938 4.515625 -3.921875 C 4.609375 -4.515625 4.65625 -5.273438 4.65625 -6.203125 L 4.65625 -11.046875 C 4.65625 -12.578125 4.628906 -13.832031 4.578125 -14.8125 C 4.523438 -15.800781 4.457031 -16.484375 4.375 -16.859375 C 4.25 -17.515625 3.953125 -17.945312 3.484375 -18.15625 C 3.023438 -18.363281 2.191406 -18.46875 0.984375 -18.46875 L 0.984375 -19.8125 L 10.140625 -21.3125 Z M 4.34375 -29.6875 C 4.34375 -30.550781 4.640625 -31.28125 5.234375 -31.875 C 5.828125 -32.46875 6.539062 -32.765625 7.375 -32.765625 C 8.25 -32.765625 8.976562 -32.46875 9.5625 -31.875 C 10.15625 -31.28125 10.453125 -30.550781 10.453125 -29.6875 C 10.453125 -28.84375 10.15625 -28.125 9.5625 -27.53125 C 8.976562 -26.9375 8.25 -26.640625 7.375 -26.640625 C 6.539062 -26.640625 5.828125 -26.9375 5.234375 -27.53125 C 4.640625 -28.125 4.34375 -28.84375 4.34375 -29.6875 Z M 4.34375 -29.6875 "/></g></g></g><g fill="#ffffff" fill-opacity="1"><g transform="translate(289.423146, 191.208575)"><g><path d="M 21.3125 -3.671875 C 18.914062 -0.960938 15.929688 0.390625 12.359375 0.390625 C 10.722656 0.390625 9.238281 0.132812 7.90625 -0.375 C 6.582031 -0.882812 5.445312 -1.609375 4.5 -2.546875 C 3.550781 -3.484375 2.8125 -4.59375 2.28125 -5.875 C 1.757812 -7.164062 1.5 -8.601562 1.5 -10.1875 C 1.5 -11.8125 1.773438 -13.300781 2.328125 -14.65625 C 2.878906 -16.007812 3.660156 -17.179688 4.671875 -18.171875 C 5.691406 -19.160156 6.890625 -19.929688 8.265625 -20.484375 C 9.648438 -21.035156 11.171875 -21.3125 12.828125 -21.3125 C 15.617188 -21.3125 17.789062 -20.5625 19.34375 -19.0625 C 20.894531 -17.5625 21.671875 -15.457031 21.671875 -12.75 C 21.671875 -12.320312 21.601562 -12.0625 21.46875 -11.96875 C 21.34375 -11.882812 20.972656 -11.84375 20.359375 -11.84375 L 7.65625 -11.84375 C 7.550781 -11.601562 7.5 -11.164062 7.5 -10.53125 C 7.5 -7.957031 8.054688 -5.921875 9.171875 -4.421875 C 10.296875 -2.921875 11.816406 -2.171875 13.734375 -2.171875 C 14.835938 -2.171875 15.9375 -2.421875 17.03125 -2.921875 C 18.125 -3.421875 19.179688 -4.128906 20.203125 -5.046875 Z M 13.65625 -14.046875 C 14.707031 -14.046875 15.382812 -14.101562 15.6875 -14.21875 C 15.988281 -14.34375 16.140625 -14.628906 16.140625 -15.078125 C 16.140625 -16.234375 15.8125 -17.179688 15.15625 -17.921875 C 14.5 -18.660156 13.671875 -19.03125 12.671875 -19.03125 C 11.535156 -19.03125 10.523438 -18.5625 9.640625 -17.625 C 8.765625 -16.6875 8.195312 -15.492188 7.9375 -14.046875 Z M 13.65625 -14.046875 "/></g></g></g><g fill="#ffffff" fill-opacity="1"><g transform="translate(311.525451, 191.208575)"><g><path d="M 9.75 -6.46875 C 9.75 -5.414062 9.785156 -4.570312 9.859375 -3.9375 C 9.941406 -3.3125 10.101562 -2.828125 10.34375 -2.484375 C 10.582031 -2.140625 10.921875 -1.910156 11.359375 -1.796875 C 11.804688 -1.679688 12.414062 -1.609375 13.1875 -1.578125 L 13.1875 0 L 0.75 0 L 0.75 -1.578125 C 1.488281 -1.609375 2.085938 -1.691406 2.546875 -1.828125 C 3.003906 -1.972656 3.359375 -2.210938 3.609375 -2.546875 C 3.859375 -2.878906 4.03125 -3.335938 4.125 -3.921875 C 4.21875 -4.515625 4.265625 -5.273438 4.265625 -6.203125 L 4.265625 -22.5 C 4.265625 -24.019531 4.238281 -25.273438 4.1875 -26.265625 C 4.132812 -27.253906 4.066406 -27.929688 3.984375 -28.296875 C 3.847656 -28.953125 3.550781 -29.382812 3.09375 -29.59375 C 2.632812 -29.8125 1.800781 -29.921875 0.59375 -29.921875 L 0.59375 -31.265625 L 9.75 -32.765625 Z M 9.75 -6.46875 "/></g></g></g><g fill="#ffffff" fill-opacity="1"><g transform="translate(324.549972, 191.208575)"><g><path d="M 18.984375 -2.53125 L 18.828125 -2.53125 C 17.015625 -0.582031 14.660156 0.390625 11.765625 0.390625 C 10.265625 0.390625 8.890625 0.128906 7.640625 -0.390625 C 6.390625 -0.921875 5.3125 -1.660156 4.40625 -2.609375 C 3.5 -3.554688 2.796875 -4.679688 2.296875 -5.984375 C 1.796875 -7.285156 1.546875 -8.722656 1.546875 -10.296875 C 1.546875 -11.878906 1.800781 -13.335938 2.3125 -14.671875 C 2.820312 -16.015625 3.515625 -17.179688 4.390625 -18.171875 C 5.273438 -19.160156 6.328125 -19.929688 7.546875 -20.484375 C 8.773438 -21.035156 10.101562 -21.3125 11.53125 -21.3125 C 12.84375 -21.3125 14.003906 -21.113281 15.015625 -20.71875 C 16.023438 -20.320312 16.914062 -19.648438 17.6875 -18.703125 L 17.84375 -18.703125 L 17.84375 -22.0625 C 17.84375 -23.613281 17.820312 -24.945312 17.78125 -26.0625 C 17.738281 -27.1875 17.679688 -27.921875 17.609375 -28.265625 C 17.472656 -28.816406 17.066406 -29.21875 16.390625 -29.46875 C 15.722656 -29.71875 14.691406 -29.84375 13.296875 -29.84375 L 13.296875 -31.1875 L 23.28125 -32.765625 L 23.28125 -10.1875 C 23.28125 -8.207031 23.300781 -6.6875 23.34375 -5.625 C 23.382812 -4.5625 23.457031 -3.753906 23.5625 -3.203125 C 23.613281 -2.859375 23.691406 -2.578125 23.796875 -2.359375 C 23.898438 -2.148438 24.054688 -1.988281 24.265625 -1.875 C 24.484375 -1.757812 24.769531 -1.679688 25.125 -1.640625 C 25.476562 -1.597656 25.929688 -1.578125 26.484375 -1.578125 L 26.484375 -0.046875 L 18.984375 0.390625 Z M 17.765625 -11.328125 C 17.765625 -12.328125 17.65625 -13.253906 17.4375 -14.109375 C 17.226562 -14.960938 16.914062 -15.71875 16.5 -16.375 C 16.019531 -17.144531 15.410156 -17.722656 14.671875 -18.109375 C 13.941406 -18.503906 13.15625 -18.703125 12.3125 -18.703125 C 10.757812 -18.703125 9.570312 -17.992188 8.75 -16.578125 C 7.9375 -15.160156 7.53125 -13.09375 7.53125 -10.375 C 7.53125 -7.644531 7.9375 -5.539062 8.75 -4.0625 C 9.570312 -2.59375 10.75 -1.859375 12.28125 -1.859375 C 13.144531 -1.859375 13.972656 -2.082031 14.765625 -2.53125 C 15.554688 -2.976562 16.195312 -3.582031 16.6875 -4.34375 C 17.0625 -4.914062 17.332031 -5.628906 17.5 -6.484375 C 17.675781 -7.347656 17.765625 -8.445312 17.765625 -9.78125 Z M 17.765625 -11.328125 "/></g></g></g><g fill="#c9a84c" fill-opacity="1"><g transform="translate(123.040691, 213.945821)"><g><path d="M 2.546875 0 L 2.546875 -6.5625 L 0.296875 -6.5625 L 0.296875 -7.703125 L 6.203125 -7.703125 L 6.203125 -6.5625 L 3.953125 -6.5625 L 3.953125 0 Z M 2.546875 0 "/></g></g></g><g fill="#c9a84c" fill-opacity="1"><g transform="translate(131.737113, 213.945821)"><g><path d="M 0.75 0 L 0.75 -7.703125 L 3.578125 -7.703125 C 4.191406 -7.703125 4.695312 -7.597656 5.09375 -7.390625 C 5.5 -7.179688 5.800781 -6.894531 6 -6.53125 C 6.195312 -6.175781 6.296875 -5.785156 6.296875 -5.359375 C 6.296875 -4.890625 6.171875 -4.457031 5.921875 -4.0625 C 5.679688 -3.675781 5.300781 -3.394531 4.78125 -3.21875 L 6.375 0 L 4.75 0 L 3.328125 -3.03125 L 2.15625 -3.03125 L 2.15625 0 Z M 2.15625 -4.0625 L 3.484375 -4.0625 C 3.953125 -4.0625 4.296875 -4.175781 4.515625 -4.40625 C 4.734375 -4.632812 4.84375 -4.9375 4.84375 -5.3125 C 4.84375 -5.675781 4.734375 -5.96875 4.515625 -6.1875 C 4.304688 -6.40625 3.957031 -6.515625 3.46875 -6.515625 L 2.15625 -6.515625 Z M 2.15625 -4.0625 "/></g></g></g><g fill="#c9a84c" fill-opacity="1"><g transform="translate(140.78528, 213.945821)"><g><path d="M 3.71875 0.125 C 3.15625 0.125 2.644531 0.015625 2.1875 -0.203125 C 1.726562 -0.421875 1.363281 -0.757812 1.09375 -1.21875 C 0.832031 -1.675781 0.703125 -2.253906 0.703125 -2.953125 L 0.703125 -7.703125 L 2.109375 -7.703125 L 2.109375 -2.9375 C 2.109375 -2.332031 2.253906 -1.882812 2.546875 -1.59375 C 2.835938 -1.300781 3.238281 -1.15625 3.75 -1.15625 C 4.257812 -1.15625 4.660156 -1.300781 4.953125 -1.59375 C 5.242188 -1.882812 5.390625 -2.332031 5.390625 -2.9375 L 5.390625 -7.703125 L 6.796875 -7.703125 L 6.796875 -2.953125 C 6.796875 -2.253906 6.65625 -1.675781 6.375 -1.21875 C 6.101562 -0.757812 5.734375 -0.421875 5.265625 -0.203125 C 4.796875 0.015625 4.28125 0.125 3.71875 0.125 Z M 3.71875 0.125 "/></g></g></g><g fill="#c9a84c" fill-opacity="1"><g transform="translate(150.470998, 213.945821)"><g><path d="M 3.375 0.125 C 2.8125 0.125 2.3125 0.03125 1.875 -0.15625 C 1.445312 -0.351562 1.109375 -0.632812 0.859375 -1 C 0.609375 -1.363281 0.476562 -1.804688 0.46875 -2.328125 L 1.953125 -2.328125 C 1.972656 -1.960938 2.101562 -1.65625 2.34375 -1.40625 C 2.59375 -1.164062 2.929688 -1.046875 3.359375 -1.046875 C 3.734375 -1.046875 4.03125 -1.132812 4.25 -1.3125 C 4.476562 -1.488281 4.59375 -1.726562 4.59375 -2.03125 C 4.59375 -2.351562 4.492188 -2.597656 4.296875 -2.765625 C 4.097656 -2.941406 3.835938 -3.082031 3.515625 -3.1875 C 3.191406 -3.300781 2.847656 -3.421875 2.484375 -3.546875 C 1.890625 -3.753906 1.4375 -4.019531 1.125 -4.34375 C 0.8125 -4.664062 0.65625 -5.09375 0.65625 -5.625 C 0.65625 -6.082031 0.765625 -6.472656 0.984375 -6.796875 C 1.203125 -7.128906 1.503906 -7.382812 1.890625 -7.5625 C 2.285156 -7.738281 2.738281 -7.828125 3.25 -7.828125 C 3.757812 -7.828125 4.207031 -7.734375 4.59375 -7.546875 C 4.988281 -7.367188 5.296875 -7.113281 5.515625 -6.78125 C 5.742188 -6.457031 5.867188 -6.066406 5.890625 -5.609375 L 4.375 -5.609375 C 4.363281 -5.878906 4.257812 -6.117188 4.0625 -6.328125 C 3.863281 -6.535156 3.582031 -6.640625 3.21875 -6.640625 C 2.914062 -6.648438 2.660156 -6.578125 2.453125 -6.421875 C 2.242188 -6.265625 2.140625 -6.035156 2.140625 -5.734375 C 2.140625 -5.472656 2.21875 -5.265625 2.375 -5.109375 C 2.539062 -4.960938 2.757812 -4.835938 3.03125 -4.734375 C 3.3125 -4.640625 3.632812 -4.53125 4 -4.40625 C 4.375 -4.28125 4.71875 -4.128906 5.03125 -3.953125 C 5.351562 -3.773438 5.609375 -3.539062 5.796875 -3.25 C 5.984375 -2.957031 6.078125 -2.585938 6.078125 -2.140625 C 6.078125 -1.734375 5.972656 -1.359375 5.765625 -1.015625 C 5.566406 -0.671875 5.265625 -0.394531 4.859375 -0.1875 C 4.453125 0.0195312 3.957031 0.125 3.375 0.125 Z M 3.375 0.125 "/></g></g></g><g fill="#c9a84c" fill-opacity="1"><g transform="translate(159.134415, 213.945821)"><g><path d="M 2.546875 0 L 2.546875 -6.5625 L 0.296875 -6.5625 L 0.296875 -7.703125 L 6.203125 -7.703125 L 6.203125 -6.5625 L 3.953125 -6.5625 L 3.953125 0 Z M 2.546875 0 "/></g></g></g><g fill="#c9a84c" fill-opacity="1"><g transform="translate(166.951233, 213.945821)"><g><path d="M 1.3125 0.078125 C 1.0625 0.078125 0.851562 0 0.6875 -0.15625 C 0.519531 -0.320312 0.4375 -0.519531 0.4375 -0.75 C 0.4375 -0.976562 0.519531 -1.171875 0.6875 -1.328125 C 0.851562 -1.492188 1.0625 -1.578125 1.3125 -1.578125 C 1.570312 -1.578125 1.785156 -1.492188 1.953125 -1.328125 C 2.117188 -1.171875 2.203125 -0.976562 2.203125 -0.75 C 2.203125 -0.519531 2.117188 -0.320312 1.953125 -0.15625 C 1.785156 0 1.570312 0.078125 1.3125 0.078125 Z M 1.3125 0.078125 "/></g></g></g><g fill="#c9a84c" fill-opacity="1"><g transform="translate(171.789383, 213.945821)"><g/></g></g><g fill="#c9a84c" fill-opacity="1"><g transform="translate(176.605548, 213.945821)"><g><path d="M 0.75 0 L 0.75 -7.703125 L 3.578125 -7.703125 C 4.191406 -7.703125 4.695312 -7.597656 5.09375 -7.390625 C 5.5 -7.179688 5.800781 -6.894531 6 -6.53125 C 6.195312 -6.175781 6.296875 -5.785156 6.296875 -5.359375 C 6.296875 -4.890625 6.171875 -4.457031 5.921875 -4.0625 C 5.679688 -3.675781 5.300781 -3.394531 4.78125 -3.21875 L 6.375 0 L 4.75 0 L 3.328125 -3.03125 L 2.15625 -3.03125 L 2.15625 0 Z M 2.15625 -4.0625 L 3.484375 -4.0625 C 3.953125 -4.0625 4.296875 -4.175781 4.515625 -4.40625 C 4.734375 -4.632812 4.84375 -4.9375 4.84375 -5.3125 C 4.84375 -5.675781 4.734375 -5.96875 4.515625 -6.1875 C 4.304688 -6.40625 3.957031 -6.515625 3.46875 -6.515625 L 2.15625 -6.515625 Z M 2.15625 -4.0625 "/></g></g></g><g fill="#c9a84c" fill-opacity="1"><g transform="translate(185.653716, 213.945821)"><g><path d="M 0.75 0 L 0.75 -7.703125 L 5.78125 -7.703125 L 5.78125 -6.5625 L 2.15625 -6.5625 L 2.15625 -4.453125 L 5.4375 -4.453125 L 5.4375 -3.359375 L 2.15625 -3.359375 L 2.15625 -1.140625 L 5.78125 -1.140625 L 5.78125 0 Z M 0.75 0 "/></g></g></g><g fill="#c9a84c" fill-opacity="1"><g transform="translate(194.207236, 213.945821)"><g><path d="M 0.75 0 L 0.75 -7.703125 L 2.15625 -7.703125 L 2.15625 -1.09375 L 5.5625 -1.09375 L 5.5625 0 Z M 0.75 0 "/></g></g></g><g fill="#c9a84c" fill-opacity="1"><g transform="translate(202.463964, 213.945821)"><g><path d="M 0.75 0 L 0.75 -7.703125 L 2.15625 -7.703125 L 2.15625 0 Z M 0.75 0 "/></g></g></g><g fill="#c9a84c" fill-opacity="1"><g transform="translate(207.565923, 213.945821)"><g><path d="M 0.25 0 L 3.0625 -7.703125 L 4.65625 -7.703125 L 7.46875 0 L 5.96875 0 L 5.359375 -1.78125 L 2.359375 -1.78125 L 1.734375 0 Z M 2.734375 -2.875 L 4.96875 -2.875 L 3.84375 -6.078125 Z M 2.734375 -2.875 "/></g></g></g><g fill="#c9a84c" fill-opacity="1"><g transform="translate(217.471482, 213.945821)"><g><path d="M 0.75 0 L 0.75 -7.703125 L 3.84375 -7.703125 C 4.632812 -7.703125 5.238281 -7.515625 5.65625 -7.140625 C 6.082031 -6.773438 6.296875 -6.300781 6.296875 -5.71875 C 6.296875 -5.238281 6.164062 -4.851562 5.90625 -4.5625 C 5.644531 -4.269531 5.332031 -4.070312 4.96875 -3.96875 C 5.40625 -3.882812 5.765625 -3.664062 6.046875 -3.3125 C 6.335938 -2.96875 6.484375 -2.5625 6.484375 -2.09375 C 6.484375 -1.488281 6.257812 -0.988281 5.8125 -0.59375 C 5.375 -0.195312 4.753906 0 3.953125 0 Z M 2.15625 -4.46875 L 3.625 -4.46875 C 4.019531 -4.46875 4.320312 -4.554688 4.53125 -4.734375 C 4.75 -4.921875 4.859375 -5.179688 4.859375 -5.515625 C 4.859375 -5.835938 4.753906 -6.09375 4.546875 -6.28125 C 4.335938 -6.46875 4.023438 -6.5625 3.609375 -6.5625 L 2.15625 -6.5625 Z M 2.15625 -1.140625 L 3.734375 -1.140625 C 4.148438 -1.140625 4.472656 -1.238281 4.703125 -1.4375 C 4.929688 -1.632812 5.046875 -1.90625 5.046875 -2.25 C 5.046875 -2.613281 4.925781 -2.894531 4.6875 -3.09375 C 4.445312 -3.300781 4.117188 -3.40625 3.703125 -3.40625 L 2.15625 -3.40625 Z M 2.15625 -1.140625 "/></g></g></g><g fill="#c9a84c" fill-opacity="1"><g transform="translate(226.607586, 213.945821)"><g><path d="M 0.75 0 L 0.75 -7.703125 L 2.15625 -7.703125 L 2.15625 0 Z M 0.75 0 "/></g></g></g><g fill="#c9a84c" fill-opacity="1"><g transform="translate(231.709545, 213.945821)"><g><path d="M 0.75 0 L 0.75 -7.703125 L 2.15625 -7.703125 L 2.15625 -1.09375 L 5.5625 -1.09375 L 5.5625 0 Z M 0.75 0 "/></g></g></g><g fill="#c9a84c" fill-opacity="1"><g transform="translate(239.966273, 213.945821)"><g><path d="M 0.75 0 L 0.75 -7.703125 L 2.15625 -7.703125 L 2.15625 0 Z M 0.75 0 "/></g></g></g><g fill="#c9a84c" fill-opacity="1"><g transform="translate(245.068232, 213.945821)"><g><path d="M 2.546875 0 L 2.546875 -6.5625 L 0.296875 -6.5625 L 0.296875 -7.703125 L 6.203125 -7.703125 L 6.203125 -6.5625 L 3.953125 -6.5625 L 3.953125 0 Z M 2.546875 0 "/></g></g></g><g fill="#c9a84c" fill-opacity="1"><g transform="translate(253.764654, 213.945821)"><g><path d="M 2.734375 0 L 2.734375 -2.734375 L 0.15625 -7.703125 L 1.75 -7.703125 L 3.453125 -4.140625 L 5.140625 -7.703125 L 6.71875 -7.703125 L 4.140625 -2.734375 L 4.140625 0 Z M 2.734375 0 "/></g></g></g><g fill="#c9a84c" fill-opacity="1"><g transform="translate(261.834261, 213.945821)"><g><path d="M 1.3125 0.078125 C 1.0625 0.078125 0.851562 0 0.6875 -0.15625 C 0.519531 -0.320312 0.4375 -0.519531 0.4375 -0.75 C 0.4375 -0.976562 0.519531 -1.171875 0.6875 -1.328125 C 0.851562 -1.492188 1.0625 -1.578125 1.3125 -1.578125 C 1.570312 -1.578125 1.785156 -1.492188 1.953125 -1.328125 C 2.117188 -1.171875 2.203125 -0.976562 2.203125 -0.75 C 2.203125 -0.519531 2.117188 -0.320312 1.953125 -0.15625 C 1.785156 0 1.570312 0.078125 1.3125 0.078125 Z M 1.3125 0.078125 "/></g></g></g><g fill="#c9a84c" fill-opacity="1"><g transform="translate(266.67241, 213.945821)"><g/></g></g><g fill="#c9a84c" fill-opacity="1"><g transform="translate(271.488576, 213.945821)"><g><path d="M 4.109375 0.125 C 3.390625 0.125 2.753906 -0.0351562 2.203125 -0.359375 C 1.660156 -0.691406 1.238281 -1.148438 0.9375 -1.734375 C 0.644531 -2.328125 0.5 -3.019531 0.5 -3.8125 C 0.5 -4.601562 0.65625 -5.300781 0.96875 -5.90625 C 1.28125 -6.507812 1.722656 -6.976562 2.296875 -7.3125 C 2.867188 -7.65625 3.550781 -7.828125 4.34375 -7.828125 C 5.25 -7.828125 6 -7.609375 6.59375 -7.171875 C 7.1875 -6.742188 7.570312 -6.148438 7.75 -5.390625 L 6.171875 -5.390625 C 6.054688 -5.742188 5.84375 -6.019531 5.53125 -6.21875 C 5.226562 -6.425781 4.832031 -6.53125 4.34375 -6.53125 C 3.570312 -6.53125 2.976562 -6.285156 2.5625 -5.796875 C 2.144531 -5.316406 1.9375 -4.648438 1.9375 -3.796875 C 1.9375 -2.941406 2.140625 -2.28125 2.546875 -1.8125 C 2.960938 -1.351562 3.53125 -1.125 4.25 -1.125 C 4.945312 -1.125 5.472656 -1.3125 5.828125 -1.6875 C 6.179688 -2.0625 6.394531 -2.554688 6.46875 -3.171875 L 4.515625 -3.171875 L 4.515625 -4.234375 L 7.890625 -4.234375 L 7.890625 0 L 6.59375 0 L 6.484375 -1.015625 C 6.234375 -0.648438 5.921875 -0.367188 5.546875 -0.171875 C 5.171875 0.0234375 4.691406 0.125 4.109375 0.125 Z M 4.109375 0.125 "/></g></g></g><g fill="#c9a84c" fill-opacity="1"><g transform="translate(282.185585, 213.945821)"><g><path d="M 0.75 0 L 0.75 -7.703125 L 3.578125 -7.703125 C 4.191406 -7.703125 4.695312 -7.597656 5.09375 -7.390625 C 5.5 -7.179688 5.800781 -6.894531 6 -6.53125 C 6.195312 -6.175781 6.296875 -5.785156 6.296875 -5.359375 C 6.296875 -4.890625 6.171875 -4.457031 5.921875 -4.0625 C 5.679688 -3.675781 5.300781 -3.394531 4.78125 -3.21875 L 6.375 0 L 4.75 0 L 3.328125 -3.03125 L 2.15625 -3.03125 L 2.15625 0 Z M 2.15625 -4.0625 L 3.484375 -4.0625 C 3.953125 -4.0625 4.296875 -4.175781 4.515625 -4.40625 C 4.734375 -4.632812 4.84375 -4.9375 4.84375 -5.3125 C 4.84375 -5.675781 4.734375 -5.96875 4.515625 -6.1875 C 4.304688 -6.40625 3.957031 -6.515625 3.46875 -6.515625 L 2.15625 -6.515625 Z M 2.15625 -4.0625 "/></g></g></g><g fill="#c9a84c" fill-opacity="1"><g transform="translate(291.233753, 213.945821)"><g><path d="M 4.359375 0.125 C 3.585938 0.125 2.910156 -0.0390625 2.328125 -0.375 C 1.753906 -0.707031 1.304688 -1.171875 0.984375 -1.765625 C 0.660156 -2.367188 0.5 -3.0625 0.5 -3.84375 C 0.5 -4.632812 0.660156 -5.328125 0.984375 -5.921875 C 1.304688 -6.515625 1.753906 -6.976562 2.328125 -7.3125 C 2.910156 -7.65625 3.585938 -7.828125 4.359375 -7.828125 C 5.117188 -7.828125 5.785156 -7.65625 6.359375 -7.3125 C 6.941406 -6.976562 7.394531 -6.515625 7.71875 -5.921875 C 8.039062 -5.328125 8.203125 -4.632812 8.203125 -3.84375 C 8.203125 -3.0625 8.039062 -2.367188 7.71875 -1.765625 C 7.394531 -1.171875 6.941406 -0.707031 6.359375 -0.375 C 5.785156 -0.0390625 5.117188 0.125 4.359375 0.125 Z M 4.359375 -1.140625 C 5.085938 -1.140625 5.671875 -1.378906 6.109375 -1.859375 C 6.546875 -2.335938 6.765625 -3 6.765625 -3.84375 C 6.765625 -4.6875 6.546875 -5.347656 6.109375 -5.828125 C 5.671875 -6.316406 5.085938 -6.5625 4.359375 -6.5625 C 3.617188 -6.5625 3.03125 -6.316406 2.59375 -5.828125 C 2.15625 -5.347656 1.9375 -4.6875 1.9375 -3.84375 C 1.9375 -3 2.15625 -2.335938 2.59375 -1.859375 C 3.03125 -1.378906 3.617188 -1.140625 4.359375 -1.140625 Z M 4.359375 -1.140625 "/></g></g></g><g fill="#c9a84c" fill-opacity="1"><g transform="translate(301.798766, 213.945821)"><g><path d="M 2.3125 0 L 0.28125 -7.703125 L 1.78125 -7.703125 L 3.171875 -1.578125 L 4.796875 -7.703125 L 6.34375 -7.703125 L 7.9375 -1.578125 L 9.3125 -7.703125 L 10.828125 -7.703125 L 8.75 0 L 7.078125 0 L 5.546875 -5.703125 L 3.96875 0 Z M 2.3125 0 "/></g></g></g><g fill="#c9a84c" fill-opacity="1"><g transform="translate(315.10092, 213.945821)"><g><path d="M 2.546875 0 L 2.546875 -6.5625 L 0.296875 -6.5625 L 0.296875 -7.703125 L 6.203125 -7.703125 L 6.203125 -6.5625 L 3.953125 -6.5625 L 3.953125 0 Z M 2.546875 0 "/></g></g></g><g fill="#c9a84c" fill-opacity="1"><g transform="translate(323.797353, 213.945821)"><g><path d="M 0.75 0 L 0.75 -7.703125 L 2.15625 -7.703125 L 2.15625 -4.5 L 5.609375 -4.5 L 5.609375 -7.703125 L 7.015625 -7.703125 L 7.015625 0 L 5.609375 0 L 5.609375 -3.359375 L 2.15625 -3.359375 L 2.15625 0 Z M 0.75 0 "/></g></g></g><g fill="#c9a84c" fill-opacity="1"><g transform="translate(333.757878, 213.945821)"><g><path d="M 1.3125 0.078125 C 1.0625 0.078125 0.851562 0 0.6875 -0.15625 C 0.519531 -0.320312 0.4375 -0.519531 0.4375 -0.75 C 0.4375 -0.976562 0.519531 -1.171875 0.6875 -1.328125 C 0.851562 -1.492188 1.0625 -1.578125 1.3125 -1.578125 C 1.570312 -1.578125 1.785156 -1.492188 1.953125 -1.328125 C 2.117188 -1.171875 2.203125 -0.976562 2.203125 -0.75 C 2.203125 -0.519531 2.117188 -0.320312 1.953125 -0.15625 C 1.785156 0 1.570312 0.078125 1.3125 0.078125 Z M 1.3125 0.078125 "/></g></g></g></svg>